# xmcd
#
# Track frame offsets:
# 150
# 16449
# 30638
# 43861
# 65554
# 82572
# 98887
# 116081
# 133350
# 151502
# 168638
# 185325
# 195600
# 208163
# 219813
# 240695
# 252711
# 264943
# 280780
# 299957
# 315551
# 328467
#
# Disc length: 4578 seconds
#
#
# Revision: 4
# Processed by: cddbd v1.5.1PL0 Copyright (c) Steve Scherf et al.
# Submitted via: FreeRIP 2.931 
#
DISCID=4e11e016
DTITLE=Duduca and Dalvan - O Melhor de Duduca e Dalvan
DYEAR=2004
DGENRE=Sertanejo
TTITLE0=Mulher Maravilha
TTITLE1=Espinheira
TTITLE2=Dama De Vermelho
TTITLE3=Berrante De Ouro
TTITLE4=A Periquita
TTITLE5=Rastro Na Areia
TTITLE6=Massa Falida
TTITLE7=Te Amo, Te Amo, Te Amo
TTITLE8=Pirâmide Do Amor
TTITLE9=Utopia
TTITLE10=Meus Pedaços
TTITLE11=Moreninha Moreninha
TTITLE12=Vestido Branco
TTITLE13=Quem Sou Eu
TTITLE14=Amigo
TTITLE15=Pé De Cedro
TTITLE16=Amor De Caminhoneiro
TTITLE17=Eu Disse Não
TTITLE18=Igrejinha Da Serra
TTITLE19=Braços Abertos
TTITLE20=Um Milhagre De Amor
TTITLE21=Quem Quer Um Corpo
EXTD=
EXTT0=
EXTT1=
EXTT2=
EXTT3=
EXTT4=
EXTT5=
EXTT6=
EXTT7=
EXTT8=
EXTT9=
EXTT10=
EXTT11=
EXTT12=
EXTT13=
EXTT14=
EXTT15=
EXTT16=
EXTT17=
EXTT18=
EXTT19=
EXTT20=
EXTT21=
PLAYORDER=
